# xmcd
#
# Track frame offsets:
# 150
# 12418
# 23949
# 35774
# 47949
# 59401
# 71803
# 82797
# 92322
# 103566
# 116341
# 127179
# 139475
# 149956
# 161416
# 181272
# 190921
# 201451
# 217977
# 227731
# 240503
# 252710
# 263061
#
# Disc length: 3705 seconds
#
#
# Revision: 0
# Processed by: cddbd v1.4PL0 Copyright (c) Steve Scherf et al.
# Submitted via: FreeRIP 2.35 
#
DISCID=5a0e7717
DTITLE=Various Artist - This is Real Country
DYEAR=1995
DGENRE=Country
TTITLE0=By the time I get to Phoenix - Glenn Campbell
TTITLE1=My Happiness - Connie Fransis
TTITLE2=I heard the Jukebox Playing - Farron Young
TTITLE3=What have they done to my song - Billy Jo Spears
TTITLE4=Heartaches by the numbers - George Jones
TTITLE5=Stand by you man - Lynn Anderson
TTITLE6=Stop the world - Patsy Cline
TTITLE7=Sally was a good old girl - Waylon Jennings
TTITLE8=Gentle on my mind - Glenn Campbell
TTITLE9=Country Girl - Faron Young
TTITLE10=Heartbreak Tennessee - Johnny Paycheck
TTITLE11=High Noon - Frankie Laine
TTITLE12=Born to sing the Blues - Conway Twitty
TTITLE13=Walkin after midnight - Patsy Cline
TTITLE14=Glen Campbell Medley
TTITLE15=Hello Walls
TTITLE16=Honky Tonk Merry Go Round - Patsy Cline
TTITLE17=Behind Closed Doors - Diana Trask
TTITLE18=Freight Train Blues - Jimmy Dean
TTITLE19=Wreck on the Highway - Cowboy Copas
TTITLE20=Crazy - Dotti West
TTITLE21=To Whom I May Concern - Hank Locklin
TTITLE22=Both Sides Now - Anne Murray
EXTD=
EXTT0=
EXTT1=
EXTT2=
EXTT3=
EXTT4=
EXTT5=
EXTT6=
EXTT7=
EXTT8=
EXTT9=
EXTT10=
EXTT11=
EXTT12=
EXTT13=
EXTT14=
EXTT15=
EXTT16=
EXTT17=
EXTT18=
EXTT19=
EXTT20=
EXTT21=
EXTT22=
PLAYORDER=
